<svg fill="#000" xmlns="http://www.w3.org/2000/svg" width="485" height="146" viewBox="0 0 2099 634" shape-rendering="geometricPrecision" image-rendering="optimizeQuality" fill-rule="evenodd" xmlns:v="https://vecta.io/nano"><path d="M125 514l-14-14-23 7v2l37 5h0zm173-330l20 6 11 15 33 11v-59l-24-23h0l-62 21 22 29zm-73 16l35 11 35 11 21 29 22 30v36 36l-22 29-21 30-35 11-35 11-36-11-35-11-21-30-22-29v-36-36l22-30 21-29 35-11 36-11zM111 500l14 14 83 13-35-48-62 21h0zm62-21l35 48 32 5 38-53-36-11 36 11h0l21-30-21 30h0l56 18 29-15v-65l-33 11 33-11v-34 34l56-19 15-29-39-53-19 26 19-26-19-26 19 26h0l35-48-6-32-62-20v34-34h0l-33-11 33 11v-59l-24-23-62 21h0l22 29-22-29-34 11 34-11-35-48-32-5-38 53 35 11-35-11h0l-21 29 21-29-56-18-29 15v65h0l33-10-33 10v34-34l-56 19-15 29 39 53 19-27-19 27 19 26-19-26-35 47 6 33 62 20v-34 34l33 11-33-11v59l24 23 62-21h0l-22-29 22 29 35-11-35 11h0zm105 0l-38 53 20 3 74-38-56-18zm84-263l62 20-3-20-59-59v59h0zm-86-61l62-21-14-14-83-13 35 48h0zM87 418l-62-20 3 20 59 59v-59h0zM6 284l9-19-14-20-1 1 6 38zm428 85l-15 29 29-9-14-20h0zm-4-101l-35 48 39 53 9-19-13-82zm-11 130l-56 19v65l19-10 37-74zM111 500l-24-23 1 30 23-7zm97 27l18 25 14-20-32-5h0zm32 5l-14 20h0l34-17-20-3h0zm94-35l29 9v-24l-29 15h0zm29-15v24l1 1 18-35-19 10h0zm71-113l14 20h1l-6-39-9 19zm-4-101l18-25-24-7 6 32zm-6-32l24 7h0l-27-27 3 20zm-62-79l-1-30-23 7 24 23zM54 318l-39-53-9 19 13 81 35-47zm-29 80l-24-8v1l27 27-3-20zm-24-8l24 8-6-33-18 25zm29-154l56-19v-65l-18 10-38 74zm85-99l56 18 38-53-20-3-74 38zm-29 15v-24l-1-1-17 35 18-10zm0-24v24l29-15-29-9zM15 265l15-29-29 9 14 20h0zM189 99l20 3 14-20v-1l-34 18h0zm34-17l-14 20 32 5-18-25h0zm101 38l14 14 23-7v-2l-37-5h0z" fill-rule="nonzero"/><rect x="566" y="3" width="15.151" height="627.926" rx="8" ry="29" stroke="#fff" stroke-width="6.012" stroke-linejoin="round"/><path d="M815 416c13 0 25-3 36-9 10-5 20-13 27-22 8-9 14-20 18-32 4-11 6-23 6-36 0-12-2-24-6-36-4-11-10-22-18-31-7-10-17-17-27-22-11-6-23-9-36-9s-25 3-36 9c-11 5-20 12-28 22-7 9-13 20-18 31-4 12-6 24-6 36 0 13 2 25 6 36 5 12 11 23 18 32 8 9 17 17 28 22 11 6 23 9 36 9zm0-235c18 0 35 4 50 12s28 18 39 30c11 13 20 27 26 44 6 16 9 33 9 50 0 18-3 34-9 51-6 16-15 30-26 43s-24 23-39 30c-15 8-32 12-50 12s-35-4-50-12c-16-7-29-17-40-30s-19-27-26-43c-6-17-9-33-9-51 0-17 3-34 9-50 7-17 15-31 26-44 11-12 24-22 40-30 15-8 32-12 50-12zm343 267c-5 2-10 3-15 3-8 0-15-2-21-7s-11-11-14-17l-46-94c-8 0-15-1-23-1-7 0-14-1-21-3-6-2-11-6-16-11-4-4-7-12-7-21h70c5 0 10-1 15-3s10-4 14-8c4-3 7-7 10-12 3-4 4-9 4-15s-1-11-4-16c-3-4-6-8-10-12-4-3-9-6-14-8-5-1-10-2-16-2h-79v230h-37V185h122c10 1 19 3 28 7s17 9 23 15c7 7 13 14 17 23s6 18 6 28c0 8-1 15-4 22-2 7-5 13-9 19-4 5-9 11-15 15-5 5-11 9-18 11l60 123zm207 2h-37l-63-230-31 111h54c0 9-3 16-7 21s-9 8-15 11c-7 2-14 3-21 3s-14 1-21 1l-23 83h-38l37-133 35-133h57l37 133c11 44 23 88 36 133zm115-36c11 0 21-3 29-10 8-6 15-15 20-24 6-10 9-21 12-32 2-11 4-21 4-30s-2-20-4-31c-3-12-6-22-12-32-5-10-12-18-20-25s-18-10-29-10h-70v194h70zm5-230c16 1 30 6 42 14 12 9 22 20 30 33s14 27 18 42 6 30 6 44-2 29-6 44-10 29-18 42-18 24-30 32c-12 9-26 14-42 15h-111V184h111zm140 266h-37V184c10 0 37 9 37 50v216zm132-34c13 0 25-3 36-9 11-5 20-13 28-22 7-9 13-20 17-32 5-11 7-23 7-36 0-12-2-24-7-36-4-11-10-22-17-31-8-10-17-17-28-22-11-6-23-9-36-9s-25 3-36 9c-11 5-20 12-27 22-8 9-14 20-18 31-4 12-7 24-7 36 0 13 3 25 7 36 4 12 10 23 18 32 7 9 16 17 27 22 11 6 23 9 36 9zm0-235c18 0 35 4 50 12 16 8 29 18 40 30 11 13 19 27 25 44 7 16 10 33 10 50 0 18-3 34-10 51-6 16-14 30-25 43s-24 23-40 30c-15 8-32 12-50 12s-35-4-50-12c-15-7-29-17-40-30s-19-27-25-43c-6-17-10-33-10-51 0-17 4-34 10-50 6-17 14-31 25-44 11-12 25-22 40-30s32-12 50-12zm306 3c5 0 10 2 15 4 4 2 8 5 11 9s6 8 7 13c2 5 3 10 3 16v224h-40l-133-200v200h-36V184h36l137 210V184z" fill-rule="nonzero"/></svg>