<?xml version="1.0" encoding="UTF-8"?>
<!DOCTYPE svg PUBLIC "-//W3C//DTD SVG 1.1//EN" "http://www.w3.org/Graphics/SVG/1.1/DTD/svg11.dtd">
<!-- Creator: CorelDRAW X7 -->
<svg xmlns="http://www.w3.org/2000/svg" xml:space="preserve" width="718px" height="753px" version="1.1" style="shape-rendering:geometricPrecision; text-rendering:geometricPrecision; image-rendering:optimizeQuality; fill-rule:evenodd; clip-rule:evenodd"
viewBox="0 0 718 753"
 xmlns:xlink="http://www.w3.org/1999/xlink">
 <defs>
  <style type="text/css">
   <![CDATA[
    .fil0 {fill:url(#id0)}
   ]]>
  </style>
  <linearGradient id="id0" gradientUnits="userSpaceOnUse" x1="338.432" y1="611.512" x2="379.568" y2="141.753">
   <stop offset="0" style="stop-opacity:1; stop-color:#3F504D"/>
   <stop offset="0.509804" style="stop-opacity:1; stop-color:#528A82"/>
   <stop offset="1" style="stop-opacity:1; stop-color:#65C5B8"/>
  </linearGradient>
 </defs>
 <g id="Layer_x0020_1">
  <metadata id="CorelCorpID_0Corel-Layer"/>
  <path class="fil0" d="M200 692l-23 -23 -37 12 0 2 60 9zm-23 -23l23 23 132 20 -56 -76 -99 33zm99 -33l56 76 52 8 61 -84 -85 -27 -84 27zm169 0l-61 84 32 5 118 -61 -89 -28zm0 0l89 28 47 -24 -1 -104 -84 28 -51 72zm135 -189l0 89 90 -30 24 -47 -62 -84 -52 72zm0 89l0 -89 -84 117 84 -28zm52 -161l55 -76 -9 -52 -99 -32 0 89 53 71zm-53 -160l99 32 -5 -32 -94 -94 0 94zm-137 -98l99 -33 -23 -23 -132 -20 56 76zm53 71l84 27 -84 -27zm84 27l-84 -27 84 116 0 -89zm-221 -70l84 -28 -56 -76 -52 -8 -61 85 85 27zm-220 161l0 -89 -90 30 -24 47 62 84 52 -72zm0 -89l84 -27 51 -72 -89 -29 -47 24 1 104zm1 232l-53 -71 -55 76 9 52 99 32 0 -89zm0 0l0 89 84 27 -84 -116zm0 89l-99 -32 5 32 94 94 0 -94zm-129 -215l14 -29 -23 -32 -1 1 10 60zm684 136l-24 47 47 -15 -23 -32zm-336 -314l137 43 -53 -71 -84 28zm84 -28l53 71 84 27 0 -94 -38 -37 -99 33zm245 182l-55 76 62 84 14 -29 -21 -131zm-55 76l-53 -71 1 143 52 -72zm38 131l-90 30 1 104 29 -15 60 -119zm-225 130l51 -72 -136 45 85 27zm-169 0l84 -27 -137 -44 53 71zm0 0l-53 -71 -84 -27 0 94 38 37 99 -33zm-99 33l-38 -37 1 49 37 -12zm155 43l29 40 23 -32 -52 -8zm52 8l-23 32 1 1 54 -28 -32 -5zm150 -56l47 15 0 -39 -47 24zm47 -24l0 39 1 1 28 -55 -29 15zm113 -181l23 32 1 0 -10 -61 -14 29zm-7 -160l29 -40 -38 -12 9 52zm-9 -52l38 12 0 -1 -43 -43 5 32zm-99 -126l-1 -49 -37 12 38 37zm-493 257l-62 -84 -14 29 21 131 55 -76zm-46 128l-38 -12 0 1 43 43 -5 -32zm-38 -12l38 12 -9 -52 -29 40zm84 -116l53 71 -1 -143 -52 72zm52 -72l84 -116 -84 27 0 89zm-90 -59l90 -30 -1 -104 -29 15 -60 119zm136 -158l89 29 61 -85 -32 -5 -118 61zm-47 24l0 -39 -1 -1 -28 55 29 -15zm0 -39l0 39 47 -24 -47 -15zm136 44l-51 72 136 -45 -85 -27zm-249 176l24 -47 -47 15 23 32zm278 -266l32 5 23 -32 -1 -1 -54 28zm55 -27l-23 32 52 8 -29 -40zm161 60l23 23 37 -12 0 -2 -60 -9z"/>
 </g>
</svg>
