<?xml version="1.0" encoding="iso-8859-1"?>
<!-- Generator: Adobe Illustrator 16.0.0, SVG Export Plug-In . SVG Version: 6.00 Build 0)  -->
<!DOCTYPE svg PUBLIC "-//W3C//DTD SVG 1.1//EN" "http://www.w3.org/Graphics/SVG/1.1/DTD/svg11.dtd">
<svg version="1.1" id="Capa_1" xmlns="http://www.w3.org/2000/svg" xmlns:xlink="http://www.w3.org/1999/xlink" x="0px" y="0px"
	 width="575.117px" height="575.116px" viewBox="0 0 575.117 575.116" style="enable-background:new 0 0 575.117 575.116;"
	 xml:space="preserve">
<g>
	<path d="M128.936,475.234c11.465,5.557,28.142,2.821,37.236-6.11l389.242-376.36c9.084-8.951,6.32-18.159-6.188-20.607
		L412.77,45.438c-12.518-2.448-30.228,2.592-39.58,11.265L6.019,391.706c-9.343,8.664-7.621,20.196,3.854,25.771L128.936,475.234z
		 M100.458,425.902c-8.874,8.481-20.531,10.69-26.039,4.934c-5.498-5.757-2.773-17.299,6.101-25.78
		c8.874-8.491,20.521-10.7,26.039-4.943C112.058,405.859,109.333,417.41,100.458,425.902z M415.744,85.41
		c0.573-2.572,3.041-4.198,5.709-3.634l38.947,8.625c2.582,0.574,4.198,3.127,3.634,5.709c-0.497,2.228-2.477,3.749-4.666,3.749
		c-0.335,0-0.679-0.038-1.033-0.115l-38.947-8.625C416.805,90.545,415.179,87.992,415.744,85.41z M352.631,95.824l144.288,32.426
		L193.951,420.862L67.602,359.069L352.631,95.824z"/>
	<path d="M575.036,118.927l-8.549-19.307c-1.186,1.816-2.64,3.595-4.36,5.288L172.827,481.326
		c-7.42,7.296-18.838,11.676-30.466,11.676c-6.331,0-12.422-1.329-17.595-3.825L5.704,431.4c-0.258-0.134-0.469-0.315-0.717-0.449
		l2.419,8.405c2.639,9.189,11.848,19.833,20.55,23.782l116.041,65.168c8.702,3.939,21.429,1.846,28.419-4.666l391.393-375.644
		C570.79,141.484,575.82,128.451,575.036,118.927z"/>
	<path d="M339.501,149.641c-0.277,2.19,1.281,2.726,4.771,1.635c5.709-1.788,12.412-2.888,17.395-3.653
		c3.528-0.545,9.267-1.243,12.757-2.286c4.121-1.233,8.099-3.213,10.948-5.689c6.904-6.015,7.698-12.125,0.191-14.707
		c-2.954-1.004-7.659-0.765-11.972,0.469c-3.5,1.013-4.37,0.717-4.218-1.444c0.163-2.658-1.491-5.078-4.446-6.101
		c-7.487-2.572-17.231,0.478-24.126,6.493c-2.84,2.477-4.36,5.298-4.59,7.86c-0.211,2.18,1.128,5.307,1.769,7.277
		C338.89,142.288,339.96,146.055,339.501,149.641z"/>
	<path d="M301.558,197.836c0.697,0.201,1.597,0.201,2.313,0l32.952-9.094c2.2-0.603,2.64-1.492,0.995-2.018l-36.472-11.198
		c-1.664-0.516-2.907,0.153-2.773,1.482l1.798,19.718C300.411,197.205,300.84,197.616,301.558,197.836z"/>
	<path d="M272.077,198.324l22.587-6.331l-1.225-13.541c-0.124-1.329-1.396-1.301-2.878,0.067l-19.842,18.465
		C269.265,198.343,269.877,198.955,272.077,198.324z"/>
	<path d="M271.312,203.469l36.184,11.121c1.664,0.507,2.907-0.163,2.793-1.492l-1.1-13.56l-4.982,1.377
		c-2.324,0.641-4.456,0.593-6.062,0.096c-1.588-0.498-2.754-1.454-2.907-2.869l-0.277-3.069l-22.663,6.369
		C270.087,202.053,269.657,202.962,271.312,203.469z"/>
	<path d="M318.283,211.587l19.564-18.216c1.473-1.368,0.88-1.97-1.329-1.368l-22.194,6.12l1.1,13.521
		C315.547,212.964,316.82,212.945,318.283,211.587z"/>
	<path d="M209.442,259.763l30.753,11.102c2.553,0.918,6.569,0.038,8.96-1.999l17.337-14.621c2.4-2.037,2.266-4.409-0.277-5.327
		l-18.465-6.665l0.488-0.42l0.057-0.048c2.534-2.142,2.41-4.647-0.296-5.632l-7.172-2.592c-2.687-0.965-6.914-0.019-9.429,2.114
		l-22.242,18.761C206.755,256.464,206.898,258.835,209.442,259.763z"/>
	<path d="M395.385,164.186c0.659,0.201,1.481,0.172,2.313-0.02v0.029l17.892-3.385l4.074,9.993l0.095-0.01
		c0.125,0.469,0.507,0.832,1.157,1.023c1.492,0.449,3.777-0.21,5.088-1.473c0.248-0.229,0.449-0.469,0.593-0.698h0.057l7.259-12.259
		l17.968-3.385l0.048-0.077c1.195-0.163,2.505-0.708,3.385-1.54c1.301-1.253,1.167-2.591-0.306-3.021
		c-0.029,0-0.067-0.02-0.105-0.039l0.038-0.057l-13.808-4.083l6.636-11.226l-0.038-0.01c1.396-1.358,1.224-2.831-0.383-3.309
		c-1.577-0.459-3.949,0.201-5.422,1.492l-0.019-0.009l-14.621,8.969l-13.282-3.911c-0.134-0.067-0.259-0.125-0.431-0.172
		c-1.559-0.459-3.978,0.229-5.384,1.568c-1.1,1.052-1.253,2.19-0.487,2.84l3.806,9.343l-15.443,9.457l0.038,0.086
		c-0.383,0.201-0.717,0.459-0.994,0.736C393.731,162.321,393.875,163.736,395.385,164.186z"/>
	<path d="M367.692,198.936c-1.052-0.306-2.64,0.153-3.548,1.042l-20.129,19.431c-1.587-0.87-4.456-0.947-7.641,0.01
		c-4.647,1.367-8.204,4.341-7.908,6.636c0.268,2.305,4.265,3.06,8.922,1.702c2.582-0.755,4.781-2.027,6.226-3.385
		c0.134-0.086,0.258-0.172,0.363-0.258l2.171-2.104l14.478-13.98l15.061,4.313l-6.416,6.196c-1.588-0.841-4.428-0.908-7.593,0.019
		c-4.647,1.377-8.195,4.351-7.908,6.656c0.277,2.295,4.265,3.041,8.922,1.702c2.477-0.736,4.618-1.932,6.062-3.232
		c0.048-0.028,0.096-0.057,0.153-0.096l3.347-3.222l11.953-11.561l2.477-2.391c0.908-0.88,0.784-1.827-0.268-2.142L367.692,198.936z
		 M379.033,208.336c-0.535,0.536-1.473,0.803-2.113,0.631l-12.23-3.519c-0.497-0.144-0.641-0.536-0.382-0.957l0.603-0.593
		c0.545-0.325,1.233-0.497,1.73-0.344l12.259,3.509C379.501,207.246,379.579,207.819,379.033,208.336z"/>
	<path d="M329.958,263.875l-22.539-7.669c-1.979-0.669-5.049,0.077-6.866,1.655l-28.534,25.006
		c-1.826,1.597-1.683,3.423,0.296,4.083l22.539,7.679c1.971,0.66,5.04-0.076,6.856-1.664l28.535-24.996
		C332.072,266.38,331.918,264.544,329.958,263.875z M324.91,267.614l-20.885,18.293c-0.363,0.315-0.976,0.468-1.377,0.325
		l-19.995-6.799c-0.392-0.135-0.421-0.508-0.067-0.813l20.885-18.293c0.363-0.306,0.976-0.468,1.367-0.315l20.005,6.789
		C325.263,266.954,325.282,267.298,324.91,267.614z"/>
	<path d="M308.998,270.827l-10.863,4.762c-0.517,0.22-0.966,0.144-1.004-0.172l-0.277-1.722c-0.058-0.325-0.497-0.382-0.994-0.153
		l-9.085,4.236c-0.488,0.229-0.583,0.526-0.182,0.67l16.104,5.46c0.392,0.134,0.842-0.038,0.994-0.383l5.929-12.498
		C309.762,270.703,309.495,270.597,308.998,270.827z"/>
	<path d="M304.847,267.824c0.994-0.889,0.938-1.913-0.162-2.276c-1.101-0.382-2.821,0.038-3.815,0.928
		c-1.005,0.879-0.938,1.893,0.172,2.276C302.131,269.115,303.843,268.704,304.847,267.824z"/>
</g>
<g>
</g>
<g>
</g>
<g>
</g>
<g>
</g>
<g>
</g>
<g>
</g>
<g>
</g>
<g>
</g>
<g>
</g>
<g>
</g>
<g>
</g>
<g>
</g>
<g>
</g>
<g>
</g>
<g>
</g>
</svg>
